<svg width="124" height="125" viewBox="0 0 124 125" fill="none" xmlns="http://www.w3.org/2000/svg">
<rect width="124" height="125" rx="24" fill="url(#paint0_linear_2902_4144)"/>
<path fill-rule="evenodd" clip-rule="evenodd" d="M71.8169 92.9922C71.8169 93.7357 72.7824 94.026 73.1925 93.4059L97.2251 57.0663C97.5548 56.5677 97.1973 55.9026 96.5995 55.9026H78.3614V32.0074C78.3614 31.2639 77.3959 30.9735 76.9858 31.5937L52.9532 67.9333C52.6235 68.4319 52.981 69.097 53.5788 69.097H71.8169V92.9922Z" fill="white"/>
<path opacity="0.3" fill-rule="evenodd" clip-rule="evenodd" d="M32.5503 40.9097C32.5503 40.0812 33.2219 39.4097 34.0503 39.4097H57.2281C58.0565 39.4097 58.7281 40.0812 58.7281 40.9097V47.8055C58.7281 48.6339 58.0565 49.3055 57.2281 49.3055H34.0503C33.2219 49.3055 32.5503 48.6339 32.5503 47.8055V40.9097ZM32.5503 80.493C32.5503 79.6646 33.2219 78.993 34.0503 78.993H57.2281C58.0565 78.993 58.7281 79.6646 58.7281 80.493V87.3888C58.7281 88.2173 58.0565 88.8888 57.2281 88.8888H34.0503C33.2219 88.8888 32.5503 88.2173 32.5503 87.3888V80.493ZM27.5059 59.2013C26.6774 59.2013 26.0059 59.8729 26.0059 60.7013V67.5972C26.0059 68.4256 26.6774 69.0972 27.5059 69.0972H47.4114C48.2398 69.0972 48.9114 68.4256 48.9114 67.5972V60.7013C48.9114 59.8729 48.2398 59.2013 47.4114 59.2013H27.5059Z" fill="white"/>
<defs>
<linearGradient id="paint0_linear_2902_4144" x1="124" y1="0" x2="-0.995968" y2="123.996" gradientUnits="userSpaceOnUse">
<stop stop-color="#BB65FF"/>
<stop offset="1" stop-color="#4C6FFF"/>
</linearGradient>
</defs>
</svg>
